<svg enable-background="new 0 0 2000 2000" viewBox="0 0 2000 2000" xmlns="http://www.w3.org/2000/svg"><circle cx="1000.2" cy="999.9" fill="#97e189" r="911.9"/><path d="m1114.3 95.2c499.7 63.2 853.5 519.5 790.3 1019.1-31.7 250.8-460.2-63.3-914.1-121.6-450.5-57.9-926.8 141.7-895.3-107.2 63.2-499.7 519.5-853.5 1019.1-790.3z" fill="#97e189"/><path d="m1172.3 827c342.5-59.1 559.9-1 728.1 94.4 26.9 17 7.5 324.2-48.8 314.9-255.8-30.2-538.7 125.9-855.9 192.3-263.6 55.2-636.9-38.2-870-241.7-108.7-94.6 78.7-793.3 153.6-689.9 181.2 250.2 566.4 386.4 893 330z" fill="#d9f4d4"/><circle cx="1000.2" cy="999.9" fill="none" r="911.9" stroke="#70d65c" stroke-miterlimit="10" stroke-width="80"/><path d="m486.2 1253.4 85 1.2c6 .1 10.8-1.3 14.6-4.3 3.7-2.9 6.2-6.7 7.3-11.2l111.9-336.2c.4-1.4.6-3 .6-4.7 0-2.8-1-5.4-3.1-7.7s-4.7-3.5-7.9-3.5l-69.1-1c-5.3-.1-9.6 1.3-13 4-3.4 2.8-5.6 6.1-6.7 9.9l-75.8 237.5-68.4-239.5c-1-3.5-3.2-6.8-6.5-9.9-3.3-3-7.6-4.6-12.9-4.7l-69.1-1c-3.2 0-5.9 1.1-8.2 3.3-2.3 2.3-3.5 4.8-3.5 7.6l1 4.8 101.8 339.3c1.3 4.6 3.8 8.4 7.5 11.5 3.7 3 8.5 4.6 14.5 4.6z" fill="#70d65c"/><path d="m841.6 1276.3c44.3.6 78.5-9.2 102.6-29.4 24-20.2 37.4-49.4 40-87.3.8-9.1 1.3-17 1.4-23.7s-.1-14.6-.7-23.8c-1.6-37.3-14.5-66.6-38.6-87.9-24.2-21.3-57.7-32.2-100.6-32.8s-76.8 9.4-101.5 30c-24.8 20.6-38.4 49.5-41.1 86.8-.4 4.6-.7 12.5-.9 23.7-.2 11.3-.1 19.2.2 23.8 1.6 38 14.1 67.5 37.5 88.4 23.5 20.8 57.4 31.6 101.7 32.2z" fill="#70d65c"/><path d="m842.8 1209.8c-14.4-.2-25.1-4.8-32-13.9s-10.8-22.9-11.6-41.6l-.2-21.1.8-21.1c1.3-18.3 5.5-31.9 12.7-41 7.2-9 18-13.5 32.4-13.3s25.1 4.9 32 14.2 10.8 23 11.6 41.3c.3 3.5.4 10.6.2 21.1-.1 10.6-.4 17.6-.8 21.1-1.3 18.6-5.6 32.4-12.7 41.3-7.2 8.9-18 13.3-32.4 13z" fill="#d9f4d4"/><path d="m1174.5 1249.9 50.1.7c3.9.1 7.1-1.2 9.6-3.8s3.8-5.7 3.8-9.2l.7-48.6c.1-3.9-1.1-7.1-3.6-9.8-2.4-2.7-5.6-4-9.4-4.1l-41.7-.6c-10.2-.1-17.6-3.4-22-9.8-4.5-6.4-6.6-15.7-6.5-28.1l1.3-89.7 66 .9c3.9.1 7.1-1.1 9.8-3.6 2.7-2.4 4-5.6 4.1-9.4l.6-45.4c.1-3.9-1.2-7.1-3.8-9.6s-5.8-3.8-9.7-3.8l-66-.9 1.2-87.1c.1-3.9-1.1-7.1-3.6-9.6-2.4-2.5-5.6-3.8-9.4-3.8l-64.9-.9c-3.5 0-6.6 1.1-9.3 3.6-2.7 2.4-4 5.6-4.1 9.4l-1.2 87.1-41.7-.6c-3.5 0-6.6 1.1-9.3 3.6-2.7 2.4-4 5.6-4.1 9.4l-.6 45.4c0 3.5 1.2 6.6 3.8 9.3s5.7 4 9.2 4.1l41.7.6-1.4 97.6c-1 70.1 35.8 105.7 110.4 106.7z" fill="#70d65c"/><path d="m1435.2 1259.1c27.1.4 50.6-3.7 70.6-12.2s35.3-18.8 45.8-31 15.9-22.8 16-32c0-2.8-1.1-5.2-3.3-7.2-2.3-2-5-3-8.1-3l-69.1-1c-4.2-.1-7.3.3-9.3 1.2s-4.5 3-7.7 6.5c-4.7 5.2-9.6 9.5-14.7 12.7-5.2 3.3-11.9 4.8-20.4 4.7-13-.2-23-5.2-29.9-14.9-6.9-9.8-10.4-22.6-10.5-38.4v-3.2l167.3 2.4c3.9.1 7.1-1.2 9.8-3.8s4-5.8 4.1-9.7l.2-13.2c.4-27.1-4.5-51.3-14.5-72.8-10.1-21.4-25.5-38.4-46.3-50.8s-46.3-18.9-76.5-19.3c-41.9-.6-75.3 10.7-100.2 33.9-25 23.2-38.4 55.8-40.4 97.6l-.2 16.4c.1 44 12.3 77.7 36.6 101.1 24.2 23.4 57.8 35.4 100.7 36z" fill="#70d65c"/><path d="m1395.3 1093.8v-1.1c.2-16.9 4-29.9 11.4-39.2 7.3-9.2 17.7-13.7 31.1-13.5s23.7 5 30.9 14.4c7.3 9.4 10.8 22.6 10.5 39.5v1.1z" fill="#d9f4d4"/></svg>