<svg enable-background="new 0 0 2000 2000" viewBox="0 0 2000 2000" xmlns="http://www.w3.org/2000/svg"><g stroke-miterlimit="10"><path d="m1631.4 522.8 20.5 56.8s-97.8 31.9-67.7 125.5c31.1 96.9 134.9 61.2 134.9 61.2l20.5 56.8c19.2 53.3-8.5 112.1-61.8 131.3l-1353.9 487.4c-53.3 19.2-112.1-8.5-131.3-61.8l-20.5-56.8s95.7-37.1 61-133.6c-35.3-85.9-128.1-52.9-128.1-52.9l-19.3-53.7c-20.4-56.7 7.2-115.5 60.6-134.7l1353.8-487.3c53.3-19.2 112.1 8.4 131.3 61.8z" fill="#e2f7de" stroke="#70d65c" stroke-width="40"/><path d="m103.8 1133.2c53.3-19.2 112.1 8.5 131.3 61.8s-8.5 112.1-61.8 131.3" fill="none" stroke="#70d65c" stroke-width="40"/><path d="m1720.2 769.5c-53.3 19.2-112.1-8.5-131.3-61.8s8.5-112.1 61.8-131.3" fill="none" stroke="#70d65c" stroke-width="40"/><path d="m1041 1017.3 417-150.1" fill="none" stroke="#89dd78" stroke-width="10"/><path d="m1022.7 966.4 335.6-120.8" fill="none" stroke="#89dd78" stroke-width="10"/><path d="m1004.4 915.5 463.7-166.9" fill="none" stroke="#89dd78" stroke-width="10"/><path d="m986 864.6 417-150.1" fill="none" stroke="#89dd78" stroke-width="10"/><path d="m967.7 813.6 524.3-188.7" fill="none" stroke="#89dd78" stroke-width="10"/><path d="m540.6 1218.3c-19.9-55.4 9.2-116.6 65-136.7s117.2 8.5 137.2 63.9" fill="none" stroke="#89dd78" stroke-width="25"/><path d="m565.3 969.8c28.7-10.3 60.5 4.7 70.9 33.7s-4.4 60.8-33.2 71.2c-28.7 10.3-60.5-4.8-70.9-33.7-10.3-29 4.5-60.9 33.2-71.2z" fill="none" stroke="#89dd78" stroke-width="25"/><path d="m754.4 1008.4c31.1 86.4-13.2 181.3-98.8 212.2-85.7 30.8-180.3-14.2-211.4-100.5s13.2-181.3 98.8-212.2 180.3 14.1 211.4 100.5z" fill="none" stroke="#89dd78" stroke-width="16"/><path d="m1846.7 1337v62.3s-106-3.2-109.6 98.1c-3.7 104.9 109.6 106.5 109.6 106.5v62.3c0 58.5-47.4 105.8-105.8 105.8h-1484.2c-58.5 0-105.8-47.4-105.8-105.8v-62.2s105.8-2.5 105.8-108.4c-4.2-95.7-105.8-96.1-105.8-96.1v-58.8c0-62.2 47.4-109.6 105.8-109.6h1484.1c58.5 0 105.9 47.4 105.9 105.9z" fill="#e2f7de" stroke="#70d65c" stroke-width="40"/><path d="m150.9 1395.8c58.5 0 105.8 47.4 105.8 105.8 0 58.5-47.4 105.8-105.8 105.8" fill="none" stroke="#70d65c" stroke-width="40"/><path d="m1846.7 1607.5c-58.5 0-105.8-47.4-105.8-105.8 0-58.5 47.4-105.8 105.8-105.8" fill="none" stroke="#70d65c" stroke-width="40"/><path d="m1100.9 1610.7h457.2" fill="none" stroke="#89dd78" stroke-width="10"/><path d="m1100.9 1554.9h367.9" fill="none" stroke="#89dd78" stroke-width="10"/><path d="m1100.9 1499.1h508.4" fill="none" stroke="#89dd78" stroke-width="10"/><path d="m1100.9 1443.2h457.2" fill="none" stroke="#89dd78" stroke-width="10"/><path d="m1100.9 1387.4h574.8" fill="none" stroke="#89dd78" stroke-width="10"/><path d="m545.1 1630.9c0-60.7 49.6-109.9 110.8-109.9s110.8 49.2 110.8 109.9" fill="none" stroke="#70d65c" stroke-width="20"/><path d="m655.9 1398.4c31.5 0 57 25.7 57 57.5 0 31.7-25.5 57.5-57 57.5s-57-25.7-57-57.5 25.5-57.5 57-57.5z" fill="none" stroke="#70d65c" stroke-width="20"/><path d="m825.9 1501.9c0 94.7-76.1 171.4-170 171.4s-170-76.7-170-171.4 76.1-171.4 170-171.4 170 76.7 170 171.4z" fill="none" stroke="#70d65c" stroke-width="17"/></g><path d="m1768.2 235.5c51.3 51.3 51.3 134.5 0 185.8s-134.5 51.3-185.8 0-51.3-134.5 0-185.8 134.5-51.3 185.8 0z" fill="#7bd46a"/><path d="m1793.2 215.5c51.3 51.3 51.3 134.5 0 185.8s-134.5 51.3-185.8 0-51.3-134.5 0-185.8 134.5-51.3 185.8 0z" fill="#8ee47e"/><path d="m1767.7 241.1c37.2 37.2 37.2 97.6 0 134.8s-97.6 37.2-134.8 0-37.2-97.6 0-134.8 97.6-37.2 134.8 0z" fill="#7dd66b"/><path d="m1749.8 258.9c27.4 27.4 27.4 71.7 0 99.1s-71.7 27.4-99.1 0-27.4-71.7 0-99.1c27.4-27.3 71.8-27.3 99.1 0z" fill="#8ee47e"/><path d="m1693.8 727.1c51.3 51.3 51.3 134.5 0 185.8s-134.5 51.3-185.8 0-51.3-134.5 0-185.8 134.5-51.3 185.8 0z" fill="#7bd46a"/><path d="m1672.2 704.1c51.3 51.3 51.3 134.5 0 185.8s-134.5 51.3-185.8 0-51.3-134.5 0-185.8 134.5-51.3 185.8 0z" fill="#8ee47e"/><path d="m1646.6 729.6c37.2 37.2 37.2 97.6 0 134.8s-97.6 37.2-134.8 0-37.2-97.6 0-134.8c37.3-37.2 97.6-37.2 134.8 0z" fill="#7dd66b"/><path d="m1628.8 747.5c27.4 27.4 27.4 71.7 0 99.1s-71.7 27.4-99.1 0-27.4-71.7 0-99.1 71.7-27.4 99.1 0z" fill="#8ee47e"/><path d="m1478.3 366.9c51.3 51.3 51.3 134.5 0 185.8s-134.5 51.3-185.8 0-51.3-134.5 0-185.8 134.5-51.3 185.8 0z" fill="#7bd46a"/><path d="m1453.2 346.9c51.3 51.3 51.3 134.5 0 185.8s-134.5 51.3-185.8 0-51.3-134.5 0-185.8 134.5-51.3 185.8 0z" fill="#8ee47e"/><path d="m1427.7 372.5c37.2 37.2 37.2 97.6 0 134.8s-97.6 37.2-134.8 0-37.2-97.6 0-134.8 97.5-37.2 134.8 0z" fill="#7dd66b"/><path d="m1409.8 390.3c27.4 27.4 27.4 71.7 0 99.1s-71.7 27.4-99.1 0-27.4-71.7 0-99.1c27.4-27.3 71.8-27.3 99.1 0z" fill="#8ee47e"/></svg>