<svg enable-background="new 0 0 2000 2000" viewBox="0 0 2000 2000" xmlns="http://www.w3.org/2000/svg"><ellipse cx="1000.3" cy="999.9" fill="#9aed8a" rx="970.8" ry="971.4"/><ellipse cx="1014.2" cy="968" fill="#61bf4f" rx="755" ry="773.5"/><path d="m1324.2 919.2c-7.2-20-25.4-34.5-47.4-37.6l-155.4-22.3-67.5-135.3c-9.8-19.6-30.8-32.2-53.7-32.2-22.8 0-43.9 12.7-53.6 32.2l-67.5 135.2-155.4 22.3c-22 3.1-40.2 17.5-47.4 37.7-7.2 20.3-1.8 42.4 14 57.7l114 109.9-26.5 152.3c-3.7 21.2 5.9 43 24.6 55.5 18.3 12.1 42.8 13.4 62.5 3.2l135.3-70.3 135.4 70.4c8.8 4.5 18.6 6.9 28.4 6.9 12.2 0 23.9-3.5 34.1-10.2 18.6-12.4 28.2-34.2 24.5-55.4l-26.4-152.3 114-109.9c15.9-15.3 21.2-37.4 14-57.8z" fill="#b0ffa1"/></svg>