<svg enable-background="new 0 0 2000 2000" viewBox="0 0 2000 2000" xmlns="http://www.w3.org/2000/svg"><g stroke-miterlimit="10"><path d="m1668.3 544.5 20.5 56.8s-97.8 31.9-67.7 125.5c31 96.9 134.9 61.2 134.9 61.2l20.5 56.8c19.2 53.3-8.5 112.1-61.8 131.3l-1353.9 487.4c-53.3 19.2-112.1-8.5-131.3-61.8l-20.5-56.8s95.7-37.1 61-133.6c-35.3-85.9-128.1-52.9-128.1-52.9l-19.3-53.6c-20.4-56.7 7.2-115.5 60.6-134.7l1353.8-487.4c53.3-19.2 112.1 8.5 131.3 61.8z" fill="#e2f7de" stroke="#70d65c" stroke-width="40"/><path d="m140.7 1154.9c53.3-19.2 112.1 8.5 131.3 61.8s-8.5 112.1-61.8 131.3" fill="none" stroke="#70d65c" stroke-width="40"/><path d="m1757.1 791.2c-53.3 19.2-112.1-8.5-131.3-61.8s8.5-112.1 61.8-131.3" fill="none" stroke="#70d65c" stroke-width="40"/><path d="m1077.9 1039 417-150.1" fill="none" stroke="#89dd78" stroke-width="10"/><path d="m1059.6 988.1 335.6-120.8" fill="none" stroke="#89dd78" stroke-width="10"/><path d="m1041.3 937.2 463.7-166.9" fill="none" stroke="#89dd78" stroke-width="10"/><path d="m1022.9 886.3 417-150.1" fill="none" stroke="#89dd78" stroke-width="10"/><path d="m1004.6 835.3 524.3-188.7" fill="none" stroke="#89dd78" stroke-width="10"/><path d="m577.5 1240c-19.9-55.4 9.2-116.6 65-136.7s117.2 8.5 137.2 63.9" fill="none" stroke="#89dd78" stroke-width="25"/><path d="m1843 1088.3v62.3s-106-3.2-109.6 98.1c-3.7 104.9 109.6 106.5 109.6 106.5v62.3c0 58.5-47.4 105.8-105.8 105.8h-1484.1c-58.5 0-105.8-47.4-105.8-105.8v-62.3s105.8-2.5 105.8-108.4c-4.2-95.7-105.8-96.1-105.8-96.1v-58.7c0-62.2 47.4-109.6 105.8-109.6h1484.1c58.4 0 105.8 47.4 105.8 105.9z" fill="#e2f7de" stroke="#70d65c" stroke-width="40"/><g fill="none"><path d="m147.3 1147.1c58.5 0 105.8 47.4 105.8 105.8 0 58.5-47.4 105.8-105.8 105.8" stroke="#70d65c" stroke-width="40"/><path d="m1843 1358.8c-58.5 0-105.8-47.4-105.8-105.8 0-58.5 47.4-105.8 105.8-105.8" stroke="#70d65c" stroke-width="40"/><path d="m1097.3 1362h457.1" stroke="#89dd78" stroke-width="10"/><path d="m1097.3 1306.2h367.9" stroke="#89dd78" stroke-width="10"/><path d="m1097.3 1250.4h508.3" stroke="#89dd78" stroke-width="10"/><path d="m1097.3 1194.5h457.1" stroke="#89dd78" stroke-width="10"/><path d="m1097.3 1138.7h574.7" stroke="#89dd78" stroke-width="10"/><path d="m541.5 1382.2c0-60.7 49.6-109.9 110.8-109.9s110.8 49.2 110.8 109.9" stroke="#70d65c" stroke-width="20"/><path d="m652.3 1149.7c31.5 0 57 25.7 57 57.5 0 31.7-25.5 57.5-57 57.5s-57-25.7-57-57.5c-.1-31.8 25.5-57.5 57-57.5z" stroke="#70d65c" stroke-width="20"/><path d="m822.3 1253.2c0 94.7-76.1 171.4-170 171.4s-170-76.7-170-171.4 76.1-171.4 170-171.4 170 76.7 170 171.4z" stroke="#70d65c" stroke-width="17"/></g></g></svg>