<svg enable-background="new 0 0 2000 2000" viewBox="0 0 2000 2000" xmlns="http://www.w3.org/2000/svg"><path d="m1452.9 169.3c-4.8 0-9.5.7-14.2 2.1l-626.5 183.4c-26.7 7.8-42 35.9-34.2 62.5l372.4 1271.9c3.1 10.7 9.5 19.8 18.4 26.4 8.6 6.3 19.3 9.9 29.9 9.9 4.8 0 9.5-.7 14.2-2.1l626.5-183.5c26.7-7.8 42-35.9 34.2-62.5l-372.3-1271.8c-3.1-10.7-9.5-19.8-18.4-26.4-8.7-6.3-19.3-9.9-30-9.9z" fill="#50a03d"/><path d="m1200.2 1711c-15.9 0-30.1-10.6-34.5-25.8l-372.4-1271.9c-5.6-19 5.4-39 24.4-44.6l626.5-183.4c3.3-1 6.7-1.5 10.1-1.5 15.9 0 30 10.6 34.5 25.8l372.4 1271.9c2.7 9.2 1.7 18.9-3 27.4-4.6 8.4-12.2 14.5-21.4 17.3l-626.5 183.5c-3.3.9-6.7 1.3-10.1 1.3z" fill="#7bd56a"/><path d="m1847.4 1478.6-372.4-1271.9c-3.4-11.4-15.3-17.9-26.7-14.6l-626.6 183.5c-9.9 2.9-16 12.2-15.4 22.1 1.8-1.2 3.6-2.2 5.8-2.8l626.6-183.5c11.4-3.3 23.3 3.2 26.7 14.6l372.4 1271.9c.5 1.5.7 3.1.8 4.7 7.6-5.2 11.5-14.7 8.8-24z" fill="#9bea8b"/><path d="m1235.1 1623.6c-2 0-4-.5-5.8-1.5-2.8-1.5-4.9-4.1-5.8-7.2l-343.8-1174.2c-1.9-6.4 1.8-13.1 8.2-14.9l526.4-154.1c1.1-.3 2.3-.5 3.4-.5 2 0 4 .5 5.8 1.5 2.8 1.5 4.9 4.1 5.8 7.2l343.8 1174.2c.9 3.1.6 6.4-1 9.2-1.5 2.8-4.1 4.9-7.1 5.8l-526.4 154.1c-1.3.3-2.4.4-3.5.4z" fill="#7bd56a"/><path d="m1417.1 259.2c-2.2 0-4.5.3-6.8 1l-526.3 154.1c-6.1 1.8-11.3 5.9-14.4 11.6-3.1 5.6-3.8 12.2-2 18.3l343.8 1174.2c3.1 10.5 12.7 17.3 23.1 17.3 2.2 0 4.5-.3 6.8-1l526.3-154.1c6.1-1.8 11.3-5.9 14.4-11.6 3.1-5.6 3.8-12.2 2-18.3l-343.8-1174.2c-3.1-10.5-12.7-17.3-23.1-17.3z" fill="#adfd9e" stroke="#50a03d" stroke-miterlimit="10"/><path d="m1623.5 1521.9 146.6-42.9c11.4-3.3 17.9-15.3 14.6-26.6l-45.3-154.7c-91.7 31.5-143.5 130.2-115.9 224.2z" fill="#6eca5c" stroke="#50a03d" stroke-miterlimit="10" stroke-width="20"/><path d="m1386.9 1590.2-146.2 44.5c-11.3 3.5-23.3-2.9-26.8-14.3l-47-154.3c94.1-23.8 191.5 30.4 220 124.1z" fill="#6eca5c" stroke="#50a03d" stroke-miterlimit="10" stroke-width="20"/><path d="m1264.8 303.7 146.4-43.7c11.4-3.4 23.3 3.1 26.7 14.4l46.1 154.6c-94.1 23.4-191.2-31.4-219.2-125.3z" fill="#6eca5c" stroke="#50a03d" stroke-miterlimit="10" stroke-width="20"/><path d="m1029.1 375-146.9 42.1c-11.4 3.3-18 15.2-14.7 26.6l44.4 155c91.9-31.1 144.2-129.5 117.2-223.7z" fill="#6eca5c" stroke="#50a03d" stroke-miterlimit="10" stroke-width="20"/><path d="m1417.1 259.2c-2.2 0-4.5.3-6.8 1l-526.3 154.1c-6.1 1.8-11.3 5.9-14.4 11.6-3.1 5.6-3.8 12.2-2 18.3l343.8 1174.2c3.1 10.5 12.7 17.3 23.1 17.3 2.2 0 4.5-.3 6.8-1l526.3-154.1c6.1-1.8 11.3-5.9 14.4-11.6 3.1-5.6 3.8-12.2 2-18.3l-343.8-1174.2c-3.1-10.5-12.7-17.3-23.1-17.3z" fill="none" stroke="#50a03d" stroke-miterlimit="10" stroke-width="20"/><path d="m1007.7 124.8c-4.8 0-9.5.7-14.2 2.1l-626.5 183.4c-26.7 7.8-42 35.9-34.2 62.5l372.4 1271.9c3.1 10.7 9.5 19.8 18.4 26.4 8.6 6.3 19.3 9.9 29.9 9.9 4.8 0 9.5-.7 14.2-2.1l626.5-183.5c26.7-7.8 42-35.9 34.2-62.5l-372.4-1271.8c-3.1-10.7-9.5-19.8-18.4-26.4-8.6-6.3-19.2-9.9-29.9-9.9z" fill="#50a03d"/><path d="m755 1666.5c-15.9 0-30.1-10.6-34.5-25.8l-372.4-1271.9c-5.6-19 5.4-39 24.4-44.6l626.5-183.5c3.3-1 6.7-1.5 10.1-1.5 15.9 0 30 10.6 34.5 25.8l372.4 1272c2.7 9.2 1.7 18.9-3 27.4-4.6 8.4-12.2 14.5-21.4 17.3l-626.5 183.5c-3.3.8-6.7 1.3-10.1 1.3z" fill="#7bd56a"/><path d="m1402.2 1434.1-372.4-1271.9c-3.4-11.4-15.3-17.9-26.7-14.6l-626.6 183.5c-9.9 2.9-16 12.2-15.4 22.1 1.8-1.2 3.6-2.2 5.8-2.8l626.6-183.5c11.4-3.3 23.3 3.2 26.7 14.6l372.4 1271.9c.5 1.5.7 3.1.8 4.7 7.6-5.2 11.5-14.7 8.8-24z" fill="#9bea8b"/><path d="m789.9 1579.1c-2 0-4-.5-5.8-1.5-2.8-1.5-4.9-4.1-5.8-7.2l-343.8-1174.2c-1.9-6.4 1.8-13.1 8.2-14.9l526.3-154.1c1.1-.3 2.3-.5 3.4-.5 2 0 4 .5 5.8 1.5 2.8 1.5 4.9 4.1 5.8 7.2l343.8 1174.2c.9 3.1.6 6.4-1 9.2-1.5 2.8-4.1 4.9-7.1 5.8l-526.4 154.1c-1.2.3-2.3.4-3.4.4z" fill="#7bd56a"/><path d="m971.9 214.6c-2.2 0-4.5.3-6.8 1l-526.3 154.1c-6.1 1.8-11.3 5.9-14.4 11.6-3.1 5.6-3.8 12.2-2 18.3l343.8 1174.2c3.1 10.5 12.7 17.3 23.1 17.3 2.2 0 4.5-.3 6.8-1l526.3-154.1c6.1-1.8 11.3-5.9 14.4-11.6 3.1-5.6 3.8-12.2 2-18.3l-343.8-1174.1c-3.1-10.6-12.7-17.4-23.1-17.4z" fill="#adfd9e" stroke="#50a03d" stroke-miterlimit="10"/><path d="m1178.3 1477.4 146.6-42.9c11.4-3.3 17.9-15.3 14.6-26.6l-45.3-154.7c-91.7 31.5-143.5 130.2-115.9 224.2z" fill="#6eca5c" stroke="#50a03d" stroke-miterlimit="10" stroke-width="20"/><path d="m941.7 1545.7-146.2 44.5c-11.3 3.5-23.3-2.9-26.8-14.3l-47-154.3c94.1-23.8 191.5 30.4 220 124.1z" fill="#6eca5c" stroke="#50a03d" stroke-miterlimit="10" stroke-width="20"/><path d="m819.6 259.2 146.4-43.7c11.4-3.4 23.3 3.1 26.7 14.4l46.1 154.5c-94.1 23.4-191.2-31.3-219.2-125.2z" fill="#6eca5c" stroke="#50a03d" stroke-miterlimit="10" stroke-width="20"/><path d="m583.9 330.5-146.9 42.1c-11.4 3.3-18 15.2-14.7 26.6l44.4 155c91.9-31.1 144.2-129.5 117.2-223.7z" fill="#6eca5c" stroke="#50a03d" stroke-miterlimit="10" stroke-width="20"/><path d="m971.9 214.6c-2.2 0-4.5.3-6.8 1l-526.3 154.1c-6.1 1.8-11.3 5.9-14.4 11.6-3.1 5.6-3.8 12.2-2 18.3l343.8 1174.2c3.1 10.5 12.7 17.3 23.1 17.3 2.2 0 4.5-.3 6.8-1l526.3-154.1c6.1-1.8 11.3-5.9 14.4-11.6 3.1-5.6 3.8-12.2 2-18.3l-343.8-1174.1c-3.1-10.6-12.7-17.4-23.1-17.4z" fill="none" stroke="#50a03d" stroke-miterlimit="10" stroke-width="20"/><path d="m1884.4 591.3h-.5l-1404.6 9.2c-1.9 0-3.6.2-4.7.2l-262.9 1.7c-.6 0-1.2 0-1.6 0l-81.9.6c-26.4.2-50.9 11.6-69.1 32.2-17.2 19.5-26.5 45.1-26.4 72.1l7 1040.3c.2 26.9 9.8 52.2 27.1 71.5 18.3 20.3 42.8 31.5 69.1 31.5h.6l1421.8-9.3h1.6l144.4-1 33.6-.2v-.2l154.3-1c20.3-.1 39.4-8.2 53.7-22.6 14.3-14.5 22-33.6 21.9-53.9l-7.4-1095.5c-.2-20.2-8.1-39.2-22.5-53.4-14.3-14.3-33.3-22.2-53.5-22.2z" fill="#50a03d"/><path d="m1884.4 625c23.3 0 42.2 18.8 42.3 42l7.4 1095.5c.2 23.4-18.7 42.5-42.1 42.6l-188 1.2v.2l-145.3 1c-.2 0-.4 0-.7 0l-1421.8 9.3h-.4c-34.3 0-62.2-31-62.5-72.8l-7-1040.3c-.3-35.3 27.5-66.8 62-67l82.9-.5h.6l263.9-1.7c1.2-.1 2.4-.2 3.7-.2l1404.6-9.2h.4z" fill="#7bd56a"/><path d="m1750.5 1806.1 143.6-.9c23.4-.2 42.2-19.3 42.1-42.6l-7.3-1095.5c-.2-23.4-19.3-42.2-42.6-42l-215.3 1.4c18.1 4.7 31.5 21.1 31.7 40.7l4.6 724.7c.8 131.2-86 247.2-212.4 282.4-229.3 63.9-654.8 132.5-1415.2 103.7l11.1 16.3c7.2 9.3 17 16.2 28.2 20l17.2 2.6" fill="#6eca5c"/><g fill="#50a03d"><path d="m60.8 797 87.5-.6c5 0 9.1 5.1 9.2 11.6 0 6.4-4 11.7-9 11.7l-87.5.6c-5.1 0-9.2-5.1-9.2-11.6-.1-6.4 4-11.7 9-11.7z"/><path d="m187.2 797 87.5-.6c5 0 9.1 5.1 9.2 11.6 0 6.4-4 11.7-9 11.7l-87.5.6c-5.1 0-9.2-5.1-9.2-11.6-.1-6.4 3.9-11.7 9-11.7z"/><path d="m312 797 87.5-.6c5 0 9.1 5.1 9.2 11.6 0 6.4-4 11.7-9 11.7l-87.5.6c-5.1 0-9.2-5.1-9.2-11.6-.1-6.4 3.9-11.7 9-11.7z"/><path d="m442 797 87.5-.6c5 0 9.1 5.1 9.2 11.6 0 6.4-4 11.7-9 11.7l-87.5.6c-5.1 0-9.2-5.1-9.2-11.6 0-6.4 4-11.7 9-11.7z"/><path d="m568.4 797 87.5-.6c5 0 9.1 5.1 9.2 11.6 0 6.4-4 11.7-9 11.7l-87.5.6c-5.1 0-9.2-5.1-9.2-11.6-.1-6.4 3.9-11.7 9-11.7z"/><path d="m693.2 797 87.5-.6c5 0 9.1 5.1 9.2 11.6 0 6.4-4 11.7-9 11.7l-87.5.6c-5.1 0-9.2-5.1-9.2-11.6-.1-6.4 3.9-11.7 9-11.7z"/><path d="m823.3 797 87.5-.6c5 0 9.1 5.1 9.2 11.6 0 6.4-4 11.7-9 11.7l-87.5.6c-5.1 0-9.2-5.1-9.2-11.6-.1-6.4 3.9-11.7 9-11.7z"/><path d="m949.6 797 87.5-.6c5 0 9.1 5.1 9.2 11.6 0 6.4-4 11.7-9 11.7l-87.5.6c-5.1 0-9.2-5.1-9.2-11.6-.1-6.4 4-11.7 9-11.7z"/><path d="m1074.4 797 87.5-.6c5 0 9.1 5.1 9.2 11.6 0 6.4-4 11.7-9 11.7l-87.5.6c-5.1 0-9.2-5.1-9.2-11.6-.1-6.4 4-11.7 9-11.7z"/><path d="m1204.5 797 87.5-.6c5 0 9.1 5.1 9.2 11.6 0 6.4-4 11.7-9 11.7l-87.5.6c-5.1 0-9.2-5.1-9.2-11.6-.1-6.4 4-11.7 9-11.7z"/><path d="m1330.8 797 87.5-.6c5 0 9.1 5.1 9.2 11.6 0 6.4-4 11.7-9 11.7l-87.5.6c-5.1 0-9.2-5.1-9.2-11.6 0-6.4 4-11.7 9-11.7z"/><path d="m1455.6 797 87.5-.6c5 0 9.1 5.1 9.2 11.6 0 6.4-4 11.7-9 11.7l-87.5.6c-5.1 0-9.2-5.1-9.2-11.6 0-6.4 4-11.7 9-11.7z"/><path d="m1585.7 797 87.5-.6c5 0 9.1 5.1 9.2 11.6 0 6.4-4 11.7-9 11.7l-87.5.6c-5.1 0-9.2-5.1-9.2-11.6-.1-6.4 4-11.7 9-11.7z"/><path d="m1712.1 797 87.5-.6c5 0 9.1 5.1 9.2 11.6 0 6.4-4 11.7-9 11.7l-87.5.6c-5.1 0-9.2-5.1-9.2-11.6-.1-6.4 3.9-11.7 9-11.7z"/><path d="m1836.9 797 87.5-.6c5 0 9.1 5.1 9.2 11.6 0 6.4-4 11.7-9 11.7l-87.5.6c-5.1 0-9.2-5.1-9.2-11.6-.1-6.4 3.9-11.7 9-11.7z"/><path d="m60.8 1635.7 87.5-.6c5 0 9.1 5.1 9.2 11.6 0 6.4-4 11.7-9 11.7l-87.5.6c-5.1 0-9.2-5.1-9.2-11.6-.1-6.4 4-11.7 9-11.7z"/><path d="m187.2 1635.7 87.5-.6c5 0 9.1 5.1 9.2 11.6 0 6.4-4 11.7-9 11.7l-87.5.6c-5.1 0-9.2-5.1-9.2-11.6-.1-6.4 3.9-11.7 9-11.7z"/><path d="m312 1635.7 87.5-.6c5 0 9.1 5.1 9.2 11.6 0 6.4-4 11.7-9 11.7l-87.5.6c-5.1 0-9.2-5.1-9.2-11.6-.1-6.4 3.9-11.7 9-11.7z"/><path d="m442 1635.7 87.5-.6c5 0 9.1 5.1 9.2 11.6 0 6.4-4 11.7-9 11.7l-87.5.6c-5.1 0-9.2-5.1-9.2-11.6 0-6.4 4-11.7 9-11.7z"/><path d="m568.4 1635.7 87.5-.6c5 0 9.1 5.1 9.2 11.6 0 6.4-4 11.7-9 11.7l-87.5.6c-5.1 0-9.2-5.1-9.2-11.6-.1-6.4 3.9-11.7 9-11.7z"/><path d="m693.2 1635.7 87.5-.6c5 0 9.1 5.1 9.2 11.6 0 6.4-4 11.7-9 11.7l-87.5.6c-5.1 0-9.2-5.1-9.2-11.6-.1-6.4 3.9-11.7 9-11.7z"/><path d="m823.3 1635.7 87.5-.6c5 0 9.1 5.1 9.2 11.6 0 6.4-4 11.7-9 11.7l-87.5.6c-5.1 0-9.2-5.1-9.2-11.6-.1-6.4 3.9-11.7 9-11.7z"/><path d="m949.6 1635.7 87.5-.6c5 0 9.1 5.1 9.2 11.6 0 6.4-4 11.7-9 11.7l-87.5.6c-5.1 0-9.2-5.1-9.2-11.6-.1-6.4 4-11.7 9-11.7z"/><path d="m1074.4 1635.7 87.5-.6c5 0 9.1 5.1 9.2 11.6 0 6.4-4 11.7-9 11.7l-87.5.6c-5.1 0-9.2-5.1-9.2-11.6-.1-6.4 4-11.7 9-11.7z"/><path d="m1204.5 1635.7 87.5-.6c5 0 9.1 5.1 9.2 11.6 0 6.4-4 11.7-9 11.7l-87.5.6c-5.1 0-9.2-5.1-9.2-11.6-.1-6.4 4-11.7 9-11.7z"/><path d="m1330.8 1635.7 87.5-.6c5 0 9.1 5.1 9.2 11.6 0 6.4-4 11.7-9 11.7l-87.5.6c-5.1 0-9.2-5.1-9.2-11.6 0-6.4 4-11.7 9-11.7z"/><path d="m1455.6 1635.7 87.5-.6c5 0 9.1 5.1 9.2 11.6 0 6.4-4 11.7-9 11.7l-87.5.6c-5.1 0-9.2-5.1-9.2-11.6 0-6.4 4-11.7 9-11.7z"/><path d="m1585.7 1635.7 87.5-.6c5 0 9.1 5.1 9.2 11.6 0 6.4-4 11.7-9 11.7l-87.5.6c-5.1 0-9.2-5.1-9.2-11.6-.1-6.4 4-11.7 9-11.7z"/><path d="m1712.1 1635.7 87.5-.6c5 0 9.1 5.1 9.2 11.6 0 6.4-4 11.7-9 11.7l-87.5.6c-5.1 0-9.2-5.1-9.2-11.6-.1-6.4 3.9-11.7 9-11.7z"/><path d="m1836.9 1635.7 87.5-.6c5 0 9.1 5.1 9.2 11.6 0 6.4-4 11.7-9 11.7l-87.5.6c-5.1 0-9.2-5.1-9.2-11.6-.1-6.4 3.9-11.7 9-11.7z"/></g><path d="m419 1002.8v24.1-24.1c-.3 0-.7 0-1 0l-277.2 1.9-24.1.2.2 24.1 1.8 264.7.2 24.1 24.1-.2 277.2-1.9c39.1-.3 75.7-15.7 103.1-43.6 27.4-27.8 42.4-64.6 42.1-103.7l-.2-20.4c-.3-38.9-15.6-75.4-43.2-102.8-27.5-27.3-64.1-42.4-103-42.4z" fill="#6eca5c" stroke="#50a03d" stroke-miterlimit="10" stroke-width="20"/><path d="m373.2 1002.8h-1l-277.3 1.9-24.1.2.2 24.1 1.8 264.7.2 24.1 24.1-.2 277.3-1.9c39.1-.3 75.7-15.8 103.1-43.6s42.4-64.7 42.1-103.7l-.2-20.4c-.3-38.9-15.6-75.4-43.2-102.8-27.5-27.3-64.1-42.4-103-42.4" fill="#6eca5c" stroke="#50a03d" stroke-miterlimit="10" stroke-width="20"/><path d="m510.2 1146.7c-.5-76.3-60.9-137.6-134.8-137.1l-303.8 2.2.1 16.3 1.9 279.5 42.2-.3-1.8-256.6c-.1-12.6 9.8-23 22-23l239.4-1.7c73.9-.5 134.3 60.9 134.8 137.1l.1 11.2c0-1.5.1-3 .1-4.5z" fill="#7bd56a"/><path d="m340.9 1102.3h-.4c-16.1.1-31.4 7.1-42 19.2-9.4 10.7-14.5 24.7-14.4 39.2s5.4 28.3 14.9 38.9c10.7 11.9 26 18.8 42 18.8h.4c16.1-.1 31.4-7.1 42-19.2 9.4-10.7 14.5-24.7 14.4-39.2s-5.4-28.3-14.9-38.9c-10.6-12-25.9-18.8-42-18.8z" fill="#50a03d"/><path d="m341 1120.8h-.2c-10.9.1-21.2 4.8-28.4 13-6.4 7.3-9.8 16.7-9.7 26.5s3.7 19.2 10.1 26.3c7.2 8.1 17.6 12.7 28.4 12.7h.2c10.9-.1 21.2-4.8 28.4-13 6.4-7.3 9.8-16.7 9.7-26.5s-3.7-19.2-10.1-26.3c-7.2-8-17.6-12.7-28.4-12.7z" fill="#7bd56a"/></svg>