<svg enable-background="new 0 0 2000 2000" viewBox="0 0 2000 2000" xmlns="http://www.w3.org/2000/svg"><path d="m451.2 1973.2c-16 0-32-4.9-45.8-14.7-26.5-18.6-39.6-50.4-34.3-82.9l96.6-593.3c.8-4.9-.6-9.9-3.8-13.1l-409.3-420.3c-22.2-22.8-29.7-56-19.4-86.6 9.9-29.6 34.7-50.9 64.8-55.5l565.7-86.6c3.5-.5 6.7-3.1 8.4-6.9l253-539.9c13.7-29.2 41.7-47.3 73.2-47.3s59.4 18.1 73.1 47.3h.1l253 539.8c1.8 3.8 4.9 6.4 8.4 7l565.7 86.6c30.1 4.6 55 25.9 64.8 55.5 10.2 30.6 2.8 63.8-19.4 86.6l-409.4 420.2c-3.1 3.3-4.6 8.3-3.8 13.2l96.6 593.3c5.3 32.5-7.8 64.2-34.2 82.9-25.1 17.7-57.3 19.6-84.3 4.6l-506-280.2c-2.9-1.6-6.3-1.6-9.3 0l-505.9 280.2c-12.1 6.7-25.3 10.1-38.5 10.1z" fill="#70d65c"/></svg>