<svg enable-background="new 0 0 2000 2000" viewBox="0 0 2000 2000" xmlns="http://www.w3.org/2000/svg"><path d="m689.5 1788.8c-48.8-3.1-94.9-34-114.7-81.7l-279.6-671.6c-25.5-61.2 3.3-130.4 64.5-154.9 61.6-24.7 157.7 4.4 183.8 66.2l286.8 678.9c27 64-3.5 134-67.8 156-15.8 5.5-56.9 8.2-73 7.1z" fill="#6ccc58"/><path d="m359.7 880.7c61.6-24.7 157.7 4.4 183.8 66.2l262.3 620.7c-43.9-11.3-95.9-10.3-145.7-54-83-72.8-42.2-166.1-108-249.2-30.1-38-85.7-78-199.1-90l-57.8-138.8c-25.4-61.2 3.3-130.4 64.5-154.9z" fill="#9be28d"/><path d="m175.4 734.1c2.4 0 4.8.2 7.1.5l172.7-1.9v449.1l-166.8-2.3c-4.3 1.1-8.7 1.7-13.1 1.7-59.2 0-107.2-100.1-107.2-223.5s48.1-223.6 107.3-223.6z" fill="#6ccc58"/><path d="m355.5 735.2c-64.8 148.1-64.8 295.6 0 444.6l1272 409 13.1-1247.9z" fill="#6ccc58"/><path d="m1389.7 1228.8c-134.8-51.1-176.7-246.6-333.1-253.2-122.8-5.2-159.8 114.1-280.1 101.2-123.2-13.2-143.8-145.9-281.7-192.7-62.7-21.3-120.7-16.5-184.4 1.5-8.6 98.5 1.1 196.5 44.5 296.2l1272 409 4.8-395c-.1 0-185.9 54.2-242 33z" fill="#9be28d"/><g stroke="#fff" stroke-miterlimit="10"><ellipse cx="1640.6" cy="966.2" fill="#70d65c" rx="291.2" ry="625.3" stroke-width="16"/><path d="m1705.9 964.8c0-164.8-121.3-298.3-270.9-298.3-16.8 0-35.5 2.6-51.5 5.8-29.3 85.7-34.1 188.4-34.1 293.7 0 104 2.5 207.6 33.6 292.1 16.2 3.3 34.9 5 52 5 149.6 0 270.9-133.6 270.9-298.3z" fill="#fff"/></g></svg>