<svg enable-background="new 0 0 2000 2000" viewBox="0 0 2000 2000" xmlns="http://www.w3.org/2000/svg"><g fill="#70d65c"><path d="m1480.9 849.6c1.4-70.6 2.5-141.1 3.4-211.7 1.4-102.9 3.6-206 .9-308.8-1.5-57.4-11-118.2-43.9-166.8-40-58.8-101.9-95.1-171.2-108.7-42.2-8.3-86-11.9-129-9.5-40.9 2.3-82.9 8.7-121.2 23.8-37.7 14.8-69.9 33-100.9 59.2-22.5 19-42 42.9-57 68.1-12.7 21.4-23.3 45.6-28.1 70.1-5.7 29.3-5.4 58.9-6 88.5-1.8 82.9-3 165.8-4.3 248.6-.3 20.4-.1 40.9-2.8 61.1.9-6.4 1.7-12.8 2.6-19.1-2.3 16-6.3 31.5-12.4 46.4 2.4-5.7 4.8-11.5 7.3-17.2-5.3 12.4-11.9 24-20 34.6 3.8-4.9 7.5-9.7 11.3-14.6-7.3 9.3-15.6 17.6-24.9 24.9 4.9-3.8 9.7-7.5 14.6-11.3-10.6 8.2-22.1 14.8-34.4 20.1 5.7-2.4 11.5-4.8 17.2-7.3-15.8 6.6-32.3 10.9-49.2 13.2 6.4-.9 12.8-1.7 19.1-2.6-20.1 2.5-40.5 1.8-60.7 1.6-23.3-.2-46.6-.6-69.9-1.1-59.3-1.2-118.5-2.8-177.8-4.3-68.7-1.8-140.2-9-207.5 8.7-25.9 6.8-52.3 17.5-74.3 32.8-25.4 17.6-44.5 36.8-62.3 62-26.4 37.6-36.7 83-41.6 127.8-2.3 21.2-2.2 42.8-2.5 64.1-1 72.8-.7 145.6-.6 218.3.2 88.7.6 177.4 1 266.1.3 61.7.7 123.5.8 185.2.1 55.5 7.7 115.4 37.9 163.4 30.9 49.1 81.7 82.5 138.9 92.4 47.6 8.3 96.3 7.5 144.5 7.9 68 .6 136.1.4 204.1.3 85.1-.2 170.2-.7 255.2-1.2 87.7-.5 175.5-1.1 263.2-1.6 75-.4 150-.8 225-.8 49.6 0 99.2 1.3 148.7 1 35.7-.2 71.6-4.1 106.7-10.6 36.3-6.8 70.5-18.9 104.2-34 72.6-32.4 132.9-89.7 174.4-157 56.6-91.6 78.1-201.2 84.8-307.3 3.7-59.4 2.9-119.4-4.7-178.5-6.7-52.3-16.4-103.9-35.7-153.1-9.5-24.1-19.8-48-32.6-70.6-12.1-21.3-26.5-40.8-41.6-60.1-25.2-32-55.8-58.6-89-82-58.4-41.1-128.9-66.4-198.8-79.6-68.3-12.9-137.8-17.1-207.3-16.6-26.8.2-53.6 1-80.4 1.8-18.8.5-37.5 7.7-50.9 21.1-12.5 12.5-21.9 33-21.1 50.9 1.7 38.1 31.7 73.2 72 72 58.7-1.7 117.4-3.2 176.1.8 18.4 1.3 36.8 3.1 55.1 5.5-6.4-.9-12.8-1.7-19.1-2.6 49.8 6.7 99.1 18.3 145.6 37.8-5.7-2.4-11.5-4.8-17.2-7.3 30.9 13.1 60.1 29.7 86.7 50.2-4.9-3.8-9.7-7.5-14.6-11.3 23.5 18.3 44.5 39.4 62.8 62.9-3.8-4.9-7.5-9.7-11.3-14.6 20.5 26.7 37 56 50.1 86.9-2.4-5.7-4.8-11.5-7.3-17.2 18.9 45.2 30.3 93 36.9 141.5-.9-6.4-1.7-12.8-2.6-19.1 10.5 79.8 9.6 162.1-.9 241.8.9-6.4 1.7-12.8 2.6-19.1-7.1 52.5-19.4 104.5-40 153.5 2.4-5.7 4.8-11.5 7.3-17.2-13.3 31.2-30 60.9-50.7 87.8 3.8-4.9 7.5-9.7 11.3-14.6-17.3 22.3-37.2 42.4-59.6 59.7 4.9-3.8 9.7-7.5 14.6-11.3-22.8 17.5-47.7 31.8-74 43 5.7-2.4 11.5-4.8 17.2-7.3-33.2 13.9-68.2 22.8-103.8 27.6 6.4-.9 12.8-1.7 19.1-2.6-32.4 4.3-64.7 4.4-97.4 3.9-30.9-.4-61.8-.5-92.7-.5-92-.1-184.1.4-276.1 1-108.6.6-217.1 1.3-325.7 1.9-97.2.5-194.3 1-291.5.8-57.5-.1-115.4.8-172.9-2.4-6.9-.4-13.8-1-20.6-1.9 6.4.9 12.8 1.7 19.1 2.6-15.9-2.2-31.5-5.9-46.4-11.9 5.7 2.4 11.5 4.8 17.2 7.3-10.8-4.5-20.9-10.3-30.2-17.4 4.9 3.8 9.7 7.5 14.6 11.3-7.9-6.2-14.9-13.3-21.1-21.2 3.8 4.9 7.5 9.7 11.3 14.6-7.4-9.7-13.4-20.3-18.2-31.6 2.4 5.7 4.8 11.5 7.3 17.2-7.1-17.2-11.3-35.3-13.9-53.7.9 6.4 1.7 12.8 2.6 19.1-5.9-44.6-3.2-91.1-3.4-136-.3-57.1-.6-114.1-.8-171.2-.5-121.6-1.2-243.3-.5-364.9.2-39.6-1.4-80.2 3.7-119.5-.9 6.4-1.7 12.8-2.6 19.1 2.5-18.8 7-37.3 14.3-54.9-2.4 5.7-4.8 11.5-7.3 17.2 5.4-12.8 12.2-24.8 20.6-35.8-3.8 4.9-7.5 9.7-11.3 14.6 7.6-9.8 16.4-18.5 26.1-26.2-4.9 3.8-9.7 7.5-14.6 11.3 11.5-8.8 24-15.9 37.4-21.5-5.7 2.4-11.5 4.8-17.2 7.3 18.1-7.4 37.1-12 56.5-14.7-6.4.9-12.8 1.7-19.1 2.6 43.3-5.7 87.6-2 131-.9 42.2 1.1 84.3 2.2 126.5 3.2 62 1.5 124.5 4.6 186.5 3 38.9-1 74.5-9.7 109.8-25.5 35.6-15.9 63.8-42.9 86.4-74.2 26-35.9 36.4-80.6 40.4-123.9 1.9-20.9 1.4-42.1 1.8-63 .4-22 .7-44 1.1-66 .7-45.9 1.5-91.9 2.4-137.8.4-18.9.8-37.8 1.2-56.7.3-12.4 0-25.1 1.6-37.4-.9 6.4-1.7 12.8-2.6 19.1 1.8-13.2 5.7-25.9 10.8-38.2-2.4 5.7-4.8 11.5-7.3 17.2 6.4-15 14.8-29 24.7-42-3.8 4.9-7.5 9.7-11.3 14.6 11.5-14.9 24.8-28.1 39.6-39.7-4.9 3.8-9.7 7.5-14.6 11.3 17.1-13.2 35.9-23.9 55.8-32.4-5.7 2.4-11.5 4.8-17.2 7.3 25.1-10.5 51.5-17.1 78.4-20.9-6.4.9-12.8 1.7-19.1 2.6 39.1-5.1 79.2-4.5 118.2.6-6.4-.9-12.8-1.7-19.1-2.6 25.6 3.5 50.8 9.4 74.6 19.4-5.7-2.4-11.5-4.8-17.2-7.3 14.6 6.3 28.4 14.1 41.1 23.7-4.9-3.8-9.7-7.5-14.6-11.3 10.5 8.2 20 17.6 28.3 28.1-3.8-4.9-7.5-9.7-11.3-14.6 8.6 11.2 15.6 23.5 21.3 36.5-2.4-5.7-4.8-11.5-7.3-17.2 8 19 12.8 38.9 15.6 59.3-.9-6.4-1.7-12.8-2.6-19.1 4.6 35 3.6 70.8 3.8 106 .2 45.3-.1 90.6-.5 135.9-.8 87.9-2.1 175.9-3.6 263.8-.3 19.1-.7 38.3-1.1 57.4-.7 37.7 33.6 73.7 72 72 39.4-1.4 71-31.3 71.8-71.6z"/><path d="m706.1 1815.1c-.1-8.5-.1-16.9-.2-25.4-.2-23-.4-45.9-.6-68.9-.3-33.9-.6-67.8-.9-101.8-.4-41.4-.7-82.7-1.1-124.1-.4-45.3-.8-90.6-1.2-135.9-.4-45.9-.8-91.8-1.2-137.7-.4-42.6-.7-85.3-1.1-127.9-.3-36-.6-72.1-.9-108.1-.2-25.9-.4-51.9-.7-77.8-.1-12.3-.1-24.6-.3-36.9 0-.5 0-1.1 0-1.6-.2-18.6-7.9-37.7-21.1-50.9-6.5-7-14.2-12-23.2-14.9-8.6-4.5-17.8-6.6-27.7-6.2-18.6.8-37.9 7-50.9 21.1-12.9 14-21.3 31.5-21.1 50.9.1 8.5.1 16.9.2 25.4.2 23 .4 45.9.6 68.9.3 33.9.6 67.8.9 101.8.4 41.4.7 82.7 1.1 124.1.4 45.3.8 90.6 1.2 135.9.4 45.9.8 91.8 1.2 137.7.4 42.6.7 85.3 1.1 127.9.3 36 .6 72.1.9 108.1.2 25.9.4 51.9.7 77.8.1 12.3.1 24.6.3 36.9v1.6c.2 18.6 7.9 37.7 21.1 50.9 6.5 7 14.2 12 23.2 14.9 8.6 4.5 17.8 6.6 27.7 6.2 18.6-.8 37.9-7 50.9-21.1 12.9-14 21.3-31.5 21.1-50.9z"/></g></svg>