<svg enable-background="new 0 0 2000 2000" viewBox="0 0 2000 2000" xmlns="http://www.w3.org/2000/svg"><g fill="#70d65c"><path d="m430.7 1772.6c84.8 65.1 180.9 114.9 282.3 148.6 103.9 34.5 215.1 50.6 324.5 48 90.7-2.1 181.9-16.6 268.4-44 84.1-26.6 165.4-64.5 239.2-113 72.6-47.7 139.6-104.9 196.9-170.2 57.8-65.9 107.7-139.1 145.7-218.2 38.6-80.4 67.3-165.4 82.3-253.3 15.7-91.5 19.9-184.7 9.1-277-10.4-89.6-31.3-176.9-66.1-260.2-17.8-42.6-37.5-84.2-61-124.1-23.3-39.5-49.8-76.8-78.1-112.8-54.2-69-118.2-128.7-188.7-180.7-70.8-52.2-148.9-93.1-231.1-124.2-84.8-32.2-174.3-50.8-264.7-58-91.8-7.4-184.8-.6-274.9 18-87.2 18-172 49.3-250.8 90.6-77.1 40.4-148.8 92.2-212.3 151.6-63.7 59.6-119.4 128.8-164.8 203.2-45.7 75.1-81.3 157.4-104.9 242.1-24.8 88.7-36.7 181.9-35.4 274 1.6 113.8 22.8 228.4 64.4 334.5 20.3 51.9 44.2 102.2 72.8 150.1 16.1 26.9 54.7 39.2 82.1 21.5 27.1-17.5 38.8-53.3 21.5-82.1-22-36.8-41.4-74.9-58.1-114.4 2 4.8 4 9.6 6 14.3-31-73.9-52.1-151.6-62.9-231 .7 5.3 1.4 10.6 2.1 16-10.7-80.7-10.7-162.6-.1-243.3-.7 5.3-1.4 10.6-2.1 16 10.7-79.6 31.9-157.5 63-231.6-2 4.8-4 9.6-6 14.3 30.6-72.3 70.4-140.4 118.3-202.6-3.1 4-6.3 8.1-9.4 12.1 47.7-61.6 103.1-117 164.8-164.8-4 3.1-8.1 6.3-12.1 9.4 62.2-47.9 130.3-87.7 202.6-118.3-4.8 2-9.6 4-14.3 6 74.1-31.1 152-52.3 231.6-63-5.3.7-10.6 1.4-16 2.1 80.5-10.6 162.2-10.6 242.7 0-5.3-.7-10.6-1.4-16-2.1 79.6 10.7 157.5 31.9 231.6 63-4.8-2-9.6-4-14.3-6 72.3 30.6 140.4 70.4 202.6 118.3-4-3.1-8.1-6.3-12.1-9.4 61.6 47.7 117 103.1 164.8 164.8-3.1-4-6.3-8.1-9.4-12.1 47.9 62.2 87.7 130.3 118.3 202.6-2-4.8-4-9.6-6-14.3 31.1 74.1 52.3 152 63 231.6-.7-5.3-1.4-10.6-2.1-16 10.6 80.5 10.6 162.2 0 242.7.7-5.3 1.4-10.6 2.1-16-10.7 79.6-31.9 157.5-63 231.6 2-4.8 4-9.6 6-14.3-30.6 72.3-70.4 140.4-118.3 202.6 3.1-4 6.3-8.1 9.4-12.1-47.7 61.6-103.1 117-164.8 164.8 4-3.1 8.1-6.3 12.1-9.4-62.2 47.9-130.3 87.7-202.6 118.3 4.8-2 9.6-4 14.3-6-74.1 31.1-152 52.3-231.6 63 5.3-.7 10.6-1.4 16-2.1-80.5 10.6-162.2 10.6-242.7 0 5.3.7 10.6 1.4 16 2.1-80-10.8-158.1-32.1-232.5-63.4 4.8 2 9.6 4 14.3 6-71.7-30.4-139.2-69.9-200.9-117.3-11.5-8.8-33.1-9.7-46.2-6-13.9 3.8-29 14.6-35.9 27.6-7.4 13.9-11 30.8-6 46.2 5 15.7 14.3 25.6 27.4 35.7z"/><path d="m441.1 1663.8c-3.8.7-7.5 2.2-11.2 3.4-7.9 2.6-15.7 5.2-23.6 7.9-25 8.5-49.9 17.1-74.8 25.6-60.1 20.5-120.4 41-181.3 59.1-22.5 6.7-45.5 14.1-68.8 17.3 5.3-.7 10.6-1.4 16-2.1-3.2.4-6.5.9-9.7.4 5.3.7 10.6 1.4 16 2.1-.6-.1-1.2-.2-1.8-.5 4.8 2 9.6 4 14.3 6-.2-.1-.5-.2-.7-.4 4 3.1 8.1 6.3 12.1 9.4-.1-.1-.2-.2-.3-.4 3.1 4 6.3 8.1 9.4 12.1-.1-.2-.2-.4-.3-.6 2 4.8 4 9.6 6 14.3-.2-.4-.3-.9-.3-1.3.7 5.3 1.4 10.6 2.1 16-.2-1.6-.1-3.3.2-4.9-.7 5.3-1.4 10.6-2.1 16 1.2-8.8 4.2-17.4 7.1-25.7 4.6-13.4 9.8-26.6 15.1-39.7 3.7-9.1 7.4-18.1 11.2-27.2-2 4.8-4 9.6-6 14.3 16.9-40 34.6-79.6 52.4-119.3 16-35.7 32.2-71.4 47.6-107.4 7.4-17.3 15.2-34.7 21.5-52.5 5-14 1.3-33.7-6-46.2-7.3-12.4-21.6-24.3-35.9-27.6-15.4-3.5-32.6-2.7-46.2 6-4 3.1-8.1 6.3-12.1 9.4-7.4 7.5-12.6 16.3-15.4 26.5-3.5 9.9-7.6 19.7-11.7 29.4 2-4.8 4-9.6 6-14.3-25.2 59.8-52.7 118.6-78.9 178-15 34.2-29.9 68.4-43.8 103.1-7.6 18.9-16.3 38.5-20.1 58.6-1.4 7.5-2.9 15.1-2.8 22.7.1 17 6.6 33.5 18.7 45.6 13.5 13.4 33.6 20.3 52.6 18.2 24.2-2.7 47.4-8.4 70.8-15 59.9-17.1 119-37.2 177.9-57.2 26.7-9.1 53.3-18.2 79.9-27.3 15.1-5.2 30.1-10.6 45.4-15.2 1.2-.3 2.4-.7 3.6-1 14-2.4 29-15.8 35.9-27.6 7.5-12.9 10.7-31.8 6-46.2-4.7-14.5-13.7-28.5-27.6-35.9-4.8-2-9.6-4-14.3-6-10.9-2.7-21.5-2.7-32.1.1z"/><circle cx="590.3" cy="1058.4" r="140.8"/><circle cx="997.1" cy="1058.4" r="140.8"/><circle cx="1404" cy="1058.4" r="140.8"/></g></svg>