<svg enable-background="new 0 0 2000 2000" viewBox="0 0 2000 2000" xmlns="http://www.w3.org/2000/svg"><path d="m1939.9 1018.4c5.9 57.9 2.6 114.5-8.7 168.5-5.9 28.5-14.1 56.2-24.4 83-23.4 61.6-57.7 118.3-100.6 167.5l55.4 253.4-273.3-101.2c-44.6 17.1-92.1 28.7-142 33.8-303.3 30.7-574.2-190.3-604.9-493.7-22.4-220.7 88.5-424.1 267.3-530.5 6.8-4 13.8-8 20.8-11.8 61.9-33.3 131.2-55.2 205.4-62.7 303.5-30.7 574.3 190.4 605 493.7z" fill="#70d65c"/><g fill="#fff"><circle cx="1149.4" cy="1129" r="49.8"/><circle cx="1298" cy="1119.8" r="49.8"/><circle cx="1446.7" cy="1083.8" r="49.8"/><circle cx="1595.4" cy="1083.8" r="49.8"/></g><path d="m57.6 885.8c-2.1 58.1 4.9 114.4 19.7 167.6 7.7 28 17.7 55.1 29.8 81.3 27.3 59.9 65.2 114.3 111.3 160.5l-38.7 256.5 266.1-118.8c45.6 14.1 93.8 22.6 143.9 24.4 304.7 10.9 560.5-227.4 571.4-532.1 7.9-221.7-116-417.5-301.4-511.9-7.1-3.6-14.3-7.1-21.6-10.4-63.9-29.2-134.5-46.5-209.1-49.2-304.7-10.9-560.6 227.4-571.4 532.1z" fill="#70d65c"/><circle cx="347" cy="922.1" fill="#fff" r="58.4"/><circle cx="525.4" cy="924.8" fill="#fff" r="58.4"/><circle cx="696.6" cy="953.9" fill="#fff" r="58.4"/><circle cx="871.8" cy="942.1" fill="#fff" r="58.4"/></svg>